<svg xmlns="http://www.w3.org/2000/svg" width="51.474" height="58.251" viewBox="0 0 51.474 58.251">
  <g id="Layer_3" data-name="Layer 3" transform="translate(0.414 0.001)">
    <g id="Grupo_32200" data-name="Grupo 32200">
      <path id="Trazado_45345" data-name="Trazado 45345" d="M12.05,34.8V52.87a2.036,2.036,0,0,0,2.04,2.04H33.78" fill="none" stroke="#0072bc" stroke-linecap="round" stroke-linejoin="round" stroke-width="2"/>
      <path id="Trazado_45346" data-name="Trazado 45346" d="M12.05,27.77V13.76a2.036,2.036,0,0,1,2.04-2.04H34.78a2.036,2.036,0,0,1,2.04,2.04V40.51" fill="none" stroke="#0072bc" stroke-linecap="round" stroke-linejoin="round" stroke-width="2"/>
      <path id="Trazado_45347" data-name="Trazado 45347" d="M29.02,27.21a.582.582,0,0,1,0,1.01l-3.86,2.23L21.3,32.68a.587.587,0,0,1-.88-.51V23.26a.59.59,0,0,1,.88-.51l3.86,2.23,3.86,2.23Z" fill="none" stroke="#0072bc" stroke-linecap="round" stroke-linejoin="round" stroke-width="2"/>
      <path id="Trazado_45348" data-name="Trazado 45348" d="M40.18,57.25H36.69a2.4,2.4,0,0,1-1.95-1l-4.1-5.72a2.4,2.4,0,0,1,.25-3.09h0a2.4,2.4,0,0,1,3.58.22l2.92,3.73" fill="none" stroke="#0072bc" stroke-linecap="round" stroke-linejoin="round" stroke-width="2"/>
      <path id="Trazado_45349" data-name="Trazado 45349" d="M33.21,46.83l-.13-.19-6.57-8.82a2.4,2.4,0,0,1-.48-1.45,2.44,2.44,0,0,1,4.33-1.55l5.15,6.31a.457.457,0,0,0,.67.03l2.62-2.62a3.132,3.132,0,0,1,4.44,0l5.98,5.98a2.868,2.868,0,0,1,.84,2.03v5.78" fill="none" stroke="#0072bc" stroke-linecap="round" stroke-linejoin="round" stroke-width="2"/>
      <path id="Trazado_45350" data-name="Trazado 45350" d="M1,48.21l3.32-3.32a2.392,2.392,0,0,0,.7-1.69V35.75a2.419,2.419,0,0,1,.63-1.62l5.2-5.65a2.4,2.4,0,0,1,3.61.1l.05.06a2.406,2.406,0,0,1,.03,3l-3.83,4.85" fill="none" stroke="#0072bc" stroke-linecap="round" stroke-linejoin="round" stroke-width="2"/>
      <line id="Línea_21" data-name="Línea 21" x1="2.52" y2="2.51" transform="translate(9.75 53.78)" fill="none" stroke="#0072bc" stroke-linecap="round" stroke-linejoin="round" stroke-width="2"/>
      <line id="Línea_22" data-name="Línea 22" x2="4.7" transform="translate(22.1 16.4)" fill="none" stroke="#0072bc" stroke-linecap="round" stroke-linejoin="round" stroke-width="2"/>
      <line id="Línea_23" data-name="Línea 23" x2="4.7" transform="translate(22.1 49.89)" fill="none" stroke="#0072bc" stroke-linecap="round" stroke-linejoin="round" stroke-width="2"/>
      <path id="Trazado_45351" data-name="Trazado 45351" d="M22.1,8.78A3.168,3.168,0,0,1,24.44,7.7,3.244,3.244,0,0,1,26.8,8.78" fill="none" stroke="#0072bc" stroke-linecap="round" stroke-linejoin="round" stroke-width="2"/>
      <path id="Trazado_45352" data-name="Trazado 45352" d="M19.5,6.36a7.087,7.087,0,0,1,9.89,0" fill="none" stroke="#0072bc" stroke-linecap="round" stroke-linejoin="round" stroke-width="2"/>
      <path id="Trazado_45353" data-name="Trazado 45353" d="M16.98,3.68a11.763,11.763,0,0,1,14.95,0" fill="none" stroke="#0072bc" stroke-linecap="round" stroke-linejoin="round" stroke-width="2"/>
    </g>
  </g>
</svg>
