<svg id="Grupo_32196" data-name="Grupo 32196" xmlns="http://www.w3.org/2000/svg" xmlns:xlink="http://www.w3.org/1999/xlink" width="233.755" height="47.773" viewBox="0 0 233.755 47.773">
  <defs>
    <clipPath id="clip-path">
      <rect id="Rectángulo_14452" data-name="Rectángulo 14452" width="233.755" height="47.773" fill="none"/>
    </clipPath>
  </defs>
  <g id="Grupo_32195" data-name="Grupo 32195" clip-path="url(#clip-path)">
    <path id="Trazado_45322" data-name="Trazado 45322" d="M31.363,0a16.89,16.89,0,0,0-6.115,1.145A16.886,16.886,0,0,0,19.131,0C9.079,0,0,9.507,0,22.552a25.248,25.248,0,0,0,50.5,0C50.5,9.507,41.417,0,31.363,0M25.248,7.746A10.432,10.432,0,0,1,29.743,16c0,2.763-1.823,4.938-4.5,4.938s-4.5-2.175-4.5-4.938a10.434,10.434,0,0,1,4.5-8.259m0,33.815A19.03,19.03,0,0,1,6.206,22.429c0-9.815,7.083-16.52,12.648-16.27a14.713,14.713,0,0,0-4.235,10.161,10.63,10.63,0,1,0,21.256,0A14.716,14.716,0,0,0,31.641,6.159c5.566-.25,12.649,6.455,12.649,16.27A19.032,19.032,0,0,1,25.248,41.561" fill="#fff"/>
    <path id="Trazado_45323" data-name="Trazado 45323" d="M567.381,71.1v5.2H575.3V95.8h5.61V76.3h7.923V71.1Z" transform="translate(-480.529 -60.218)" fill="#fff"/>
    <path id="Trazado_45324" data-name="Trazado 45324" d="M1085.1,71.1h-14.125V76.34h13.752c2.017,0,2.8.922,2.8,3.286V80.5h-11.4c-4.333,0-6.49,2.168-6.49,7.067v1.166c0,5.038,2.235,7.063,6.726,7.063h16.713V79.562c0-6.221-2.055-8.459-7.984-8.459m-8.144,19.416c-.85,0-1.8-.434-1.8-2.552s.941-2.488,1.8-2.488h10.574v5.041Z" transform="translate(-905.911 -60.219)" fill="#fff"/>
    <path id="Trazado_45325" data-name="Trazado 45325" d="M1389.392,71.1h-14.124V76.34h13.751c2.019,0,2.8.922,2.8,3.286,0,.012,0,.671,0,.871h-11.4c-4.333,0-6.489,2.168-6.489,7.067v1.166c0,5.038,2.236,7.063,6.726,7.063h16.713V79.562c0-6.221-2.057-8.459-7.986-8.459m-8.143,19.416c-.849,0-1.8-.434-1.8-2.552s.942-2.488,1.8-2.488h10.574v5.041Z" transform="translate(-1163.623 -60.219)" fill="#fff"/>
    <path id="Trazado_45326" data-name="Trazado 45326" d="M719.2,71.1v5.2h7.922V95.8h5.613V76.3h7.923V71.1Z" transform="translate(-609.112 -60.218)" fill="#fff"/>
    <path id="Trazado_45327" data-name="Trazado 45327" d="M1230.139,71.1v5.2h7.922V95.8h5.613V76.3h7.921V71.1Z" transform="translate(-1041.836 -60.218)" fill="#fff"/>
    <path id="Trazado_45328" data-name="Trazado 45328" d="M927.129,87.141v-7.39c0-6.47-2.509-8.652-8.169-8.652H903.939V95.791h15.284c6.008,0,7.906-2.985,7.906-8.65m-5.729.109c0,2.365-.8,3.286-2.814,3.286h-9.034V76.357h9.034c2.016,0,2.814.921,2.814,3.286Z" transform="translate(-765.569 -60.216)" fill="#fff"/>
    <path id="Trazado_45329" data-name="Trazado 45329" d="M414.2,88.386c-.12-.227-7.617-14.834-8.532-16.272a5.217,5.217,0,0,0-4.81-2.816c-2.29,0-5,1.016-5,6.515V94.277h5.532v-15.4c0-1.1-.069-2.742-.084-3.072-.012-.271,0-.528.137-.607.161-.091.318.056.426.261s7.057,13.954,8.534,16.273a5.219,5.219,0,0,0,4.81,2.816c2.288,0,5-1.017,5-6.515V69.567h-5.531v15.4c0,1.106.067,2.745.081,3.074.012.271,0,.527-.137.607-.159.092-.316-.057-.427-.261" transform="translate(-335.262 -58.69)" fill="#fff"/>
  </g>
</svg>
